<svg width="20" height="20" viewBox="0 0 20 20" fill="none" xmlns="http://www.w3.org/2000/svg">
<g clip-path="url(#clip0_1_148)">
<path d="M0 2.5V9.16667H9.16667V0H2.5C1.83696 0 1.20107 0.263392 0.732233 0.732233C0.263392 1.20107 0 1.83696 0 2.5H0ZM2.5 2.5H6.66667V6.66667H2.5V2.5Z" fill="white"/>
<path d="M17.5002 0H10.8335V9.16667H20.0002V2.5C20.0002 1.83696 19.7368 1.20107 19.2679 0.732233C18.7991 0.263392 18.1632 0 17.5002 0V0ZM17.5002 6.66667H13.3335V2.5H17.5002V6.66667Z" fill="white"/>
<path d="M0 17.5C0 18.163 0.263392 18.7989 0.732233 19.2677C1.20107 19.7366 1.83696 20 2.5 20H9.16667V10.8333H0V17.5ZM2.5 13.3333H6.66667V17.5H2.5V13.3333Z" fill="white"/>
<path d="M10.8335 20H17.5002C18.1632 20 18.7991 19.7366 19.2679 19.2677C19.7368 18.7989 20.0002 18.163 20.0002 17.5V10.8333H10.8335V20ZM13.3335 13.3333H17.5002V17.5H13.3335V13.3333Z" fill="white"/>
</g>
<defs>
<clipPath id="clip0_1_148">
<rect width="20" height="20" fill="white"/>
</clipPath>
</defs>
</svg>
