<svg width="24" height="24" viewBox="0 0 24 24" fill="none" xmlns="http://www.w3.org/2000/svg">
<g clip-path="url(#clip0_1_290)">
<path d="M22.5 13H11.5C10.672 13 10 13.672 10 14.5C10 15.328 10.672 16 11.5 16H22.5C23.328 16 24 15.328 24 14.5C24 13.672 23.328 13 22.5 13Z" fill="#DF382D"/>
<path d="M11.5 10H18.5C19.328 10 20 9.328 20 8.5C20 7.672 19.328 7 18.5 7H11.5C10.672 7 10 7.672 10 8.5C10 9.328 10.672 10 11.5 10Z" fill="#DF382D"/>
<path d="M11.5 4H14.5C15.328 4 16 3.328 16 2.5C16 1.672 15.328 1 14.5 1H11.5C10.672 1 10 1.672 10 2.5C10 3.328 10.672 4 11.5 4Z" fill="#DF382D"/>
<path d="M9.172 18.414H7V-1.229C7 -2.057 6.328 -2.729 5.5 -2.729C4.672 -2.729 4 -2.057 4 -1.229V18.414H2C1.448 18.414 1 18.862 1 19.414C1 19.679 1.105 19.933 1.293 20.121L4.879 23.707C5.27 24.097 5.903 24.097 6.293 23.707L9.879 20.121C10.269 19.73 10.269 19.097 9.879 18.707C9.692 18.52 9.437 18.414 9.172 18.414Z" fill="#DF382D"/>
</g>
<defs>
<clipPath id="clip0_1_290">
<rect width="24" height="24" fill="white"/>
</clipPath>
</defs>
</svg>
