<svg width="20" height="20" viewBox="0 0 20 20" fill="none" xmlns="http://www.w3.org/2000/svg">
<g clip-path="url(#clip0_1_141)">
<path d="M19.1985 7.40324C17.1748 4.28093 13.7198 2.38195 9.99914 2.34705C6.27854 2.38195 2.82353 4.28093 0.799846 7.40324C-0.266615 8.96833 -0.266615 11.0267 0.799846 12.5918C2.82239 15.716 6.27759 17.617 9.99918 17.653C13.7198 17.6181 17.1748 15.7191 19.1985 12.5968C20.2672 11.0305 20.2672 8.96947 19.1985 7.40324ZM17.1277 11.1728C15.5827 13.6234 12.8961 15.1185 9.99914 15.14C7.10222 15.1185 4.41561 13.6234 2.87053 11.1728C2.38886 10.4651 2.38886 9.5349 2.87053 8.82729C4.41557 6.37667 7.10218 4.88154 9.99914 4.86006C12.8961 4.8815 15.5827 6.37667 17.1277 8.82729C17.6094 9.5349 17.6094 10.4651 17.1277 11.1728Z" fill="white"/>
<path d="M9.99911 13.3507C11.8496 13.3507 13.3498 11.8506 13.3498 10C13.3498 8.1495 11.8496 6.64935 9.99911 6.64935C8.14859 6.64935 6.64844 8.1495 6.64844 10C6.64844 11.8506 8.14859 13.3507 9.99911 13.3507Z" fill="white"/>
</g>
<defs>
<clipPath id="clip0_1_141">
<rect width="20" height="20" fill="white"/>
</clipPath>
</defs>
</svg>
