<svg width="24" height="24" viewBox="0 0 24 24" fill="none" xmlns="http://www.w3.org/2000/svg">
<g clip-path="url(#clip0_1_311)">
<path d="M22.5 8H11.5C10.671 8 10 8.672 10 9.5C10 10.328 10.671 11 11.5 11H22.5C23.328 11 24 10.328 24 9.5C24 8.672 23.328 8 22.5 8Z" fill="#DF382D"/>
<path d="M18.5 14H11.5C10.671 14 10 14.672 10 15.5C10 16.328 10.671 17 11.5 17H18.5C19.328 17 20 16.328 20 15.5C20 14.672 19.328 14 18.5 14Z" fill="#DF382D"/>
<path d="M14.5 20H11.5C10.671 20 10 20.672 10 21.5C10 22.328 10.671 23 11.5 23H14.5C15.328 23 16 22.328 16 21.5C16 20.672 15.328 20 14.5 20Z" fill="#DF382D"/>
<path d="M9.75204 3.87901L6.16604 0.293006C5.77504 -0.0979941 5.14204 -0.0979941 4.75203 0.293006L1.16604 3.87901C0.776035 4.27001 0.776035 4.90301 1.16604 5.29301C1.35304 5.48001 1.60804 5.58601 1.87304 5.58601H4.00004V25.229C4.00004 26.057 4.67104 26.729 5.50004 26.729C6.32904 26.729 7.00004 26.057 7.00004 25.229V5.58601H9.04504C9.59704 5.58601 10.045 5.13801 10.045 4.58601C10.045 4.32101 9.94003 4.06701 9.75204 3.87901Z" fill="#DF382D"/>
</g>
<defs>
<clipPath id="clip0_1_311">
<rect width="24" height="24" fill="white"/>
</clipPath>
</defs>
</svg>
