<svg width="39" height="38" viewBox="0 0 39 38" fill="none" xmlns="http://www.w3.org/2000/svg">
<path d="M16.8333 9.49998H37.4167C37.8366 9.49998 38.2393 9.33316 38.5363 9.03623C38.8332 8.7393 39 8.33657 39 7.91665C39 7.49672 38.8332 7.09399 38.5363 6.79706C38.2393 6.50013 37.8366 6.33331 37.4167 6.33331H16.8333C16.4134 6.33331 16.0107 6.50013 15.7137 6.79706C15.4168 7.09399 15.25 7.49672 15.25 7.91665C15.25 8.33657 15.4168 8.7393 15.7137 9.03623C16.0107 9.33316 16.4134 9.49998 16.8333 9.49998V9.49998Z" fill="white"/>
<path d="M37.4167 17.4167H16.8333C16.4134 17.4167 16.0107 17.5835 15.7137 17.8804C15.4168 18.1774 15.25 18.5801 15.25 19C15.25 19.4199 15.4168 19.8227 15.7137 20.1196C16.0107 20.4165 16.4134 20.5834 16.8333 20.5834H37.4167C37.8366 20.5834 38.2393 20.4165 38.5363 20.1196C38.8332 19.8227 39 19.4199 39 19C39 18.5801 38.8332 18.1774 38.5363 17.8804C38.2393 17.5835 37.8366 17.4167 37.4167 17.4167Z" fill="white"/>
<path d="M37.4167 28.5H16.8333C16.4134 28.5 16.0107 28.6668 15.7137 28.9637C15.4168 29.2607 15.25 29.6634 15.25 30.0833C15.25 30.5033 15.4168 30.906 15.7137 31.2029C16.0107 31.4999 16.4134 31.6667 16.8333 31.6667H37.4167C37.8366 31.6667 38.2393 31.4999 38.5363 31.2029C38.8332 30.906 39 30.5033 39 30.0833C39 29.6634 38.8332 29.2607 38.5363 28.9637C38.2393 28.6668 37.8366 28.5 37.4167 28.5Z" fill="white"/>
<path d="M10.6377 9.5C10.7943 9.49997 10.9475 9.45347 11.0777 9.36638C11.2079 9.27929 11.3093 9.15552 11.3692 9.01076C11.429 8.86599 11.4445 8.70672 11.4138 8.55311C11.3831 8.39951 11.3075 8.25846 11.1966 8.14784L7.33329 4.28609C7.03637 3.98926 6.63371 3.82251 6.21387 3.82251C5.79403 3.82251 5.39137 3.98926 5.09445 4.28609L1.2327 8.14784C1.1218 8.25846 1.0462 8.39951 1.01549 8.55311C0.984773 8.70672 1.00032 8.86599 1.06016 9.01076C1.12 9.15552 1.22144 9.27929 1.35165 9.36638C1.48185 9.45347 1.63497 9.49997 1.79162 9.5H4.63212V28.5H1.79162C1.63484 28.4997 1.4815 28.546 1.35105 28.633C1.2206 28.7199 1.11891 28.8437 1.05888 28.9885C0.998841 29.1334 0.983161 29.2928 1.01382 29.4465C1.04449 29.6003 1.12012 29.7415 1.23112 29.8522L5.09445 33.7139C5.39137 34.0108 5.79403 34.1775 6.21387 34.1775C6.63371 34.1775 7.03637 34.0108 7.33329 33.7139L11.1966 29.8522C11.3075 29.7415 11.3831 29.6005 11.4138 29.4469C11.4445 29.2933 11.429 29.134 11.3692 28.9893C11.3093 28.8445 11.2079 28.7207 11.0777 28.6336C10.9475 28.5465 10.7943 28.5 10.6377 28.5H7.79879V9.5H10.6377Z" fill="white"/>
</svg>
