<svg width="26" height="26" viewBox="0 0 26 26" fill="none" xmlns="http://www.w3.org/2000/svg">
<g clip-path="url(#clip0_1_28)">
<path d="M25.1651 22.5104L20.2718 17.65C23.9332 12.7921 22.9348 5.90701 18.042 2.27179C13.1491 -1.36343 6.21453 -0.372221 2.55317 4.4857C-1.10819 9.34362 -0.109856 16.2287 4.783 19.8639C8.71335 22.784 14.1116 22.784 18.042 19.8639L22.9373 24.7243C23.5525 25.3351 24.5499 25.3351 25.165 24.7243C25.7802 24.1135 25.7802 23.1232 25.165 22.5125L25.1651 22.5104ZM11.4533 18.9258C7.10475 18.9258 3.57961 15.4258 3.57961 11.1084C3.57961 6.79087 7.10475 3.2909 11.4533 3.2909C15.8018 3.2909 19.327 6.79087 19.327 11.1084C19.3223 15.4239 15.7999 18.9212 11.4533 18.9258Z" fill="white"/>
</g>
<defs>
<clipPath id="clip0_1_28">
<rect width="25.2819" height="25.1013" fill="white" transform="translate(0.345215 0.0810547)"/>
</clipPath>
</defs>
</svg>
