<svg width="18" height="20" viewBox="0 0 18 20" fill="none" xmlns="http://www.w3.org/2000/svg">
<g clip-path="url(#clip0_1_134)">
<path d="M5.20014 20C6.02072 20 6.68593 19.2538 6.68593 18.3334C6.68593 17.4129 6.02072 16.6667 5.20014 16.6667C4.37957 16.6667 3.71436 17.4129 3.71436 18.3334C3.71436 19.2538 4.37957 20 5.20014 20Z" fill="white"/>
<path d="M12.6293 20C13.4499 20 14.1151 19.2538 14.1151 18.3334C14.1151 17.4129 13.4499 16.6667 12.6293 16.6667C11.8088 16.6667 11.1436 17.4129 11.1436 18.3334C11.1436 19.2538 11.8088 20 12.6293 20Z" fill="white"/>
<path d="M4.20032 4.16667L4.00494 2.44833C3.934 1.77391 3.64492 1.15213 3.19251 0.700864C2.74011 0.249599 2.15582 0.000218231 1.55042 0L0 0V2.5H1.55042C1.61119 2.50073 1.66957 2.52668 1.7143 2.57285C1.75902 2.61901 1.78691 2.68212 1.7926 2.75L2.90694 12.5492C2.97723 13.2241 3.26604 13.8466 3.71853 14.2984C4.17102 14.7502 4.75568 14.9999 5.36147 15H15.155L17.8101 4.16667H4.20032ZM13.4553 12.5H5.36147C5.30072 12.4994 5.24234 12.4735 5.19771 12.4273C5.15307 12.3811 5.12538 12.3179 5.12003 12.25L4.48485 6.66667H14.8854L13.4553 12.5Z" fill="white"/>
</g>
<defs>
<clipPath id="clip0_1_134">
<rect width="17.8295" height="20" fill="white"/>
</clipPath>
</defs>
</svg>
