<svg width="31" height="30" viewBox="0 0 31 30" fill="none" xmlns="http://www.w3.org/2000/svg">
<path d="M24.2829 28.3333H20.9509V22.9167C20.9509 22.342 20.7169 21.7909 20.3003 21.3846C19.8837 20.9783 19.3188 20.75 18.7296 20.75H9.84448C9.25536 20.75 8.69036 20.9783 8.27379 21.3846C7.85722 21.7909 7.62319 22.342 7.62319 22.9167V28.3333H4.29126V22.9167C4.29302 21.4806 4.87866 20.1039 5.91971 19.0884C6.96076 18.073 8.37222 17.5017 9.84448 17.5H18.7296C20.2019 17.5017 21.6134 18.073 22.6544 19.0884C23.6955 20.1039 24.2811 21.4806 24.2829 22.9167V28.3333Z" fill="white"/>
<path d="M15.1199 15C13.8019 15 12.5135 14.609 11.4177 13.8765C10.3218 13.1439 9.46769 12.1028 8.96331 10.8846C8.45894 9.6664 8.32698 8.32596 8.5841 7.03275C8.84123 5.73955 9.4759 4.55166 10.4079 3.61931C11.3398 2.68696 12.5272 2.05202 13.8199 1.79479C15.1125 1.53755 16.4524 1.66958 17.6701 2.17416C18.8877 2.67874 19.9285 3.53323 20.6607 4.62955C21.393 5.72588 21.7838 7.01481 21.7838 8.33336C21.782 10.1009 21.0794 11.7956 19.83 13.0455C18.5807 14.2953 16.8867 14.9983 15.1199 15V15ZM15.1199 5.00002C14.4609 5.00002 13.8167 5.19552 13.2688 5.56179C12.7209 5.92806 12.2938 6.44866 12.0416 7.05774C11.7894 7.66683 11.7234 8.33705 11.852 8.98366C11.9806 9.63026 12.2979 10.2242 12.7639 10.6904C13.2299 11.1566 13.8236 11.474 14.4699 11.6026C15.1162 11.7313 15.7862 11.6652 16.395 11.413C17.0038 11.1607 17.5242 10.7334 17.8903 10.1853C18.2564 9.63709 18.4519 8.99263 18.4519 8.33336C18.4519 7.4493 18.1008 6.60145 17.476 5.97633C16.8511 5.35121 16.0036 5.00002 15.1199 5.00002Z" fill="white"/>
</svg>
